#!OML:ASF H:\BabyWalks\Project 1\Capture day 1\Session 1\baby.ASF
:FULLY-SPECIFIED
:DEGREES
292
root -15.6205 17.2446 7.03198 5.75343 50.5048 -0.317881
lowerback 22.2422 -1.5995 3.87508
upperback 4.91736 -0.617783 4.19692
thorax -7.02566 -0.242333 2.51489
lowerneck 3.86558 8.35764 10.9801
upperneck -24.4455 9.47025 -19.8482
head -6.26128 5.68192 -9.01199
rclavicle -1.51076e-014 -1.11319e-014
rhumerus -43.9443 6.54703 -76.6211
rradius 40.4815
rwrist 2.23914
rhand -10.4788 -17.3808
rfingers 7.12502
rthumb 15.5225 -46.7777
lclavicle -1.51076e-014 -1.11319e-014
lhumerus -38.2706 -18.5833 86.7026
lradius 49.6568
lwrist -0.105466
lhand -1.81741 11.3083
lfingers 7.12502
lthumb 23.8485 39.8479
rfemur -26.5734 5.87922 21.2121
rtibia 43.4868
rfoot -18.7701 6.38711
rtoes 1.91501
lfemur -25.701 2.35428 -9.24795
ltibia 65.1571
lfoot -21.5784 -25.9145
ltoes -10.6852
293
root -15.5497 17.2656 7.09703 5.71143 50.3175 -0.303531
lowerback 22.1865 -1.40444 4.13473
upperback 4.92073 -0.304438 4.25999
thorax -6.99863 -0.0952194 2.34702
lowerneck 3.97901 8.38486 11.2105
upperneck -24.2418 9.51234 -20.1379
head -6.17301 5.71183 -9.13896
rclavicle -6.44062e-014 4.77083e-014
rhumerus -43.4433 6.31996 -76.103
rradius 40.7773
rwrist 1.88683
rhand -11.1812 -17.7766
rfingers 7.12502
rthumb 14.846 -47.2248
lclavicle -6.44062e-014 4.77083e-014
lhumerus -39.371 -18.212 87.1154
lradius 49.0022
lwrist -0.411811
lhand -0.779788 11.4899
lfingers 7.12502
lthumb 24.8433 39.8958
rfemur -26.0616 5.88042 21.2499
rtibia 43.2507
rfoot -18.7832 6.69909
rtoes 1.9743
lfemur -26.2282 2.52214 -9.51602
ltibia 64.7459
lfoot -21.7219 -25.9946
ltoes -10.8655
294
root -15.4779 17.2876 7.16106 5.63183 50.1786 -0.329724
lowerback 22.1307 -1.23342 4.42802
upperback 4.92484 -0.0141523 4.32835
thorax -6.96813 0.0406228 2.17274
lowerneck 4.06524 8.40651 11.4299
upperneck -24.0208 9.54951 -20.4049
head -6.07772 5.73688 -9.25315
rclavicle 4.37326e-014 4.77083e-015
rhumerus -42.9724 6.15076 -75.6222
rradius 41.1434
rwrist 1.42903
rhand -11.9233 -18.1837
rfingers 7.12502
rthumb 14.1309 -47.6831
lclavicle 4.37326e-014 4.77083e-015
lhumerus -40.475 -17.8425 87.4824
lradius 48.4057
lwrist -0.686902
lhand 0.175194 11.6865
lfingers 7.12502
lthumb 25.7582 39.963
rfemur -25.5046 5.85775 21.3106
rtibia 42.9494
rfoot -18.7746 6.98653
rtoes 2.06538
lfemur -26.7479 2.62038 -9.76953
ltibia 64.1785
lfoot -21.837 -26.0641
ltoes -10.9963
295
root -15.4057 17.3104 7.22421 5.52251 50.0645 -0.389088
lowerback 22.0767 -1.07336 4.73495
upperback 4.92975 0.265456 4.40216
thorax -6.93511 0.171413 2.00025
lowerneck 4.13191 8.42196 11.6421
upperneck -23.7918 9.58002 -20.6554
head -5.9794 5.7569 -9.35871
rclavicle -2.3059e-014 -4.13472e-014
rhumerus -42.5293 6.04089 -75.1748
rradius 41.5706
rwrist 0.883472
rhand -12.6769 -18.5716
rfingers 7.12502
rthumb 13.4046 -48.1203
lclavicle -2.3059e-014 -4.13472e-014
lhumerus -41.5715 -17.4856 87.8066
lradius 47.8637
lwrist -0.920879
lhand 1.06729 11.9096
lfingers 7.12502
lthumb 26.6122 40.0594
rfemur -24.9115 5.82816 21.3893
rtibia 42.5884
rfoot -18.7402 7.2546
rtoes 2.18468
lfemur -27.2527 2.66935 -10.0101
ltibia 63.4643
lfoot -21.9275 -26.0828
ltoes -11.0753
296
root -15.3332 17.3341 7.2863 5.39771 49.9744 -0.46978
lowerback 22.0203 -0.925074 5.04452
upperback 4.93194 0.530846 4.48436
thorax -6.90146 0.295566 1.84003
lowerneck 4.19132 8.43194 11.8346
upperneck -23.5585 9.60433 -20.8866
head -5.88245 5.77328 -9.45378
rclavicle -2.62396e-014 4.45278e-014
rhumerus -42.1122 6.00961 -74.7552
rradius 42.0518
rwrist 0.270833
rhand -13.4156 -18.9328
rfingers 7.12502
rthumb 12.6926 -48.5271
lclavicle -2.62396e-014 4.45278e-014
lhumerus -42.6551 -17.1261 88.092
lradius 47.3674
lwrist -1.10885
lhand 1.89441 12.1466
lfingers 7.12502
lthumb 27.4036 40.1738
rfemur -24.3105 5.78588 21.4773
rtibia 42.2192
rfoot -18.7106 7.50954
rtoes 2.34185
lfemur -27.7521 2.66745 -10.244
ltibia 62.6367
lfoot -22.0397 -25.9979
ltoes -11.1853
297
root -15.2601 17.3582 7.34747 5.27709 49.8836 -0.547725
lowerback 21.9618 -0.772445 5.33354
upperback 4.93068 0.797144 4.57121
thorax -6.86854 0.420535 1.697
lowerneck 4.23815 8.43711 12.0065
upperneck -23.3108 9.62386 -21.0965
head -5.78278 5.7862 -9.53621
rclavicle 4.13472e-014 -9.54166e-015
rhumerus -41.7193 6.0252 -74.3459
rradius 42.5649
rwrist -0.380207
rhand -14.1361 -19.2283
rfingers 7.12502
rthumb 11.9979 -48.8645
lclavicle 4.13472e-014 -9.54166e-015
lhumerus -43.7259 -16.7825 88.3498
lradius 46.9109
lwrist -1.23837
lhand 2.65768 12.3861
lfingers 7.12502
lthumb 28.1334 40.2956
rfemur -23.6906 5.75087 21.5559
rtibia 41.805
rfoot -18.6594 7.75536
rtoes 2.53418
lfemur -28.2268 2.63084 -10.4868
ltibia 61.6762
lfoot -22.14 -25.7894
ltoes -11.2674
298
root -15.1872 17.3709 7.40651 5.15997 49.7808 -0.631106
lowerback 21.9002 -0.609426 5.59993
upperback 4.924 1.07178 4.66361
thorax -6.83843 0.549799 1.57132
lowerneck 4.28059 8.43473 12.1621
upperneck -23.0556 9.63451 -21.2896
head -5.68427 5.79409 -9.60963
rclavicle -4.85035e-014 -5.56597e-014
rhumerus -41.3594 6.10546 -73.9535
rradius 43.1233
rwrist -1.06852
rhand -14.8142 -19.466
rfingers 7.12502
rthumb 11.3439 -49.1392
lclavicle -4.85035e-014 -5.56597e-014
lhumerus -44.7744 -16.4539 88.5776
lradius 46.4876
lwrist -1.3154
lhand 3.31372 12.592
lfingers 7.12502
lthumb 28.7603 40.3968
rfemur -23.0966 5.73193 21.6285
rtibia 41.3811
rfoot -18.5834 7.9969
rtoes 2.77158
lfemur -28.719 2.57896 -10.7233
ltibia 60.6318
lfoot -22.2314 -25.4601
ltoes -11.3219
299
root -15.114 17.396 7.46644 5.03834 49.661 -0.72165
lowerback 21.8378 -0.433632 5.84507
upperback 4.9153 1.35822 4.76105
thorax -6.8088 0.68509 1.46068
lowerneck 4.31109 8.42606 12.3039
upperneck -22.7843 9.63814 -21.4673
head -5.5823 5.79731 -9.6736
rclavicle -4.37326e-014 -5.08889e-014
rhumerus -41.0281 6.22161 -73.5645
rradius 43.7074
rwrist -1.76185
rhand -15.4365 -19.6046
rfingers 7.12502
rthumb 10.7438 -49.3099
lclavicle -4.37326e-014 -5.08889e-014
lhumerus -45.7953 -16.1463 88.7779
lradius 46.089
lwrist -1.357
lhand 3.89381 12.7696
lfingers 7.12502
lthumb 29.3143 40.4789
rfemur -22.4597 5.73006 21.7059
rtibia 40.8928
rfoot -18.4958 8.22395
rtoes 2.97742
lfemur -29.1305 2.50993 -10.9563
ltibia 59.4218
lfoot -22.3153 -25.0003
ltoes -11.3784
300
root -15.0409 17.4212 7.52586 4.90623 49.5275 -0.82335
lowerback 21.7788 -0.24512 6.07483
upperback 4.90611 1.65801 4.86211
thorax -6.7802 0.827082 1.35981
lowerneck 4.32384 8.41256 12.4378
upperneck -22.4954 9.63702 -21.6304
head -5.47464 5.79636 -9.72892
rclavicle -2.38542e-015 -3.97569e-014
rhumerus -40.724 6.35874 -73.1793
rradius 44.3221
rwrist -2.44521
rhand -15.9771 -19.6922
rfingers 7.12502
rthumb 10.2222 -49.4239
lclavicle -2.38542e-015 -3.97569e-014
lhumerus -46.7838 -15.88 88.9555
lradius 45.7087
lwrist -1.36549
lhand 4.41854 12.9126
lfingers 7.12502
lthumb 29.8152 40.5332
rfemur -21.8074 5.7457 21.7898
rtibia 40.3705
rfoot -18.3985 8.43621
rtoes 3.1512
lfemur -29.4988 2.42572 -11.173
ltibia 58.0964
lfoot -22.3833 -24.43
ltoes -11.4015
301
root -14.9682 17.4464 7.58506 4.77637 49.364 -0.925482
lowerback 21.7239 -0.0382107 6.27246
upperback 4.88982 1.97499 4.96547
thorax -6.76099 0.977451 1.27573
lowerneck 4.35286 8.39088 12.5545
upperneck -22.2048 9.62713 -21.7758
head -5.37392 5.79112 -9.77676
rclavicle 4.6118e-014 -3.81667e-014
rhumerus -40.4551 6.51763 -72.7976
rradius 44.9621
rwrist -3.10935
rhand -16.4318 -19.7263
rfingers 7.12502
rthumb 9.78355 -49.479
lclavicle 4.6118e-014 -3.81667e-014
lhumerus -47.7555 -15.6379 89.1081
lradius 45.3581
lwrist -1.35285
lhand 4.86721 13.015
lfingers 7.12502
lthumb 30.2433 40.5579
rfemur -21.1272 5.79222 21.8722
rtibia 39.7673
rfoot -18.264 8.63267
rtoes 3.30024
lfemur -29.8115 2.34138 -11.3776
ltibia 56.6292
lfoot -22.3932 -23.7757
ltoes -11.3535
302
root -14.8951 17.4715 7.6441 4.62115 49.2094 -1.03578
lowerback 21.6838 0.16795 6.46514
upperback 4.87818 2.29111 5.06851
thorax -6.74336 1.12764 1.19491
lowerneck 4.36509 8.36517 12.6749
upperneck -21.9016 9.61314 -21.9157
head -5.2677 5.78201 -9.82155
rclavicle -4.21423e-014 5.725e-014
rhumerus -40.2042 6.67374 -72.4187
rradius 45.6158
rwrist -3.73832
rhand -16.7948 -19.6843
rfingers 7.12502
rthumb 9.43337 -49.4532
lclavicle -4.21423e-014 5.725e-014
lhumerus -48.6919 -15.4272 89.2267
lradius 45.0369
lwrist -1.32065
lhand 5.32726 13.1091
lfingers 7.12502
lthumb 30.6821 40.5707
rfemur -20.4051 5.84103 21.9644
rtibia 39.1281
rfoot -18.13 8.80412
rtoes 3.4253
lfemur -30.0605 2.21814 -11.5594
ltibia 55.0525
lfoot -22.344 -23.065
ltoes -11.241
